<?xml version="1.0" encoding="UTF-8" standalone="no"?>
<!-- Created with Inkscape (http://www.inkscape.org/) -->

<svg
   width="15.999022mm"
   height="16.829981mm"
   viewBox="0 0 15.999022 16.829981"
   version="1.1"
   id="svg488"
   inkscape:version="1.2.2 (b0a8486541, 2022-12-01)"
   sodipodi:docname="ordec_icon.svg"
   xmlns:inkscape="http://www.inkscape.org/namespaces/inkscape"
   xmlns:sodipodi="http://sodipodi.sourceforge.net/DTD/sodipodi-0.dtd"
   xmlns="http://www.w3.org/2000/svg"
   xmlns:svg="http://www.w3.org/2000/svg">
  <sodipodi:namedview
     id="namedview490"
     pagecolor="#ffffff"
     bordercolor="#666666"
     borderopacity="1.0"
     inkscape:showpageshadow="2"
     inkscape:pageopacity="0.0"
     inkscape:pagecheckerboard="0"
     inkscape:deskcolor="#d1d1d1"
     inkscape:document-units="mm"
     showgrid="false"
     inkscape:zoom="2.1568741"
     inkscape:cx="135.84474"
     inkscape:cy="60.504227"
     inkscape:window-width="1279"
     inkscape:window-height="1382"
     inkscape:window-x="1280"
     inkscape:window-y="0"
     inkscape:window-maximized="0"
     inkscape:current-layer="text114" />
  <defs
     id="defs485" />
  <g
     inkscape:label="Layer 1"
     inkscape:groupmode="layer"
     id="layer1"
     transform="translate(-0.59531235,-2.5523641)">
    <g
       id="g468"
       transform="matrix(0.35277777,0,0,-0.35277777,-71.684443,262.97427)">
      <g
         id="g110">
        <g
           aria-label="O"
           transform="matrix(1,0,0,-1,203.2,690.989)"
           id="text114"
           style="font-weight:bold;font-size:72px;font-family:Carlito;-inkscape-font-specification:Carlito-Bold;fill:#c00000">
          <path
             d="m 47.039062,-23.378906 q 0,5.132812 -1.617187,9.527343 -1.617188,4.3593755 -4.605469,7.5585943 -2.953125,3.1992187 -7.136719,4.9921875 -4.183593,1.7929687 -9.28125,1.7929687 -5.097656,0 -9.281249,-1.7929687 Q 10.933594,-3.09375 7.9453125,-6.2929687 4.9570312,-9.4921875 3.3046875,-13.851563 1.6875,-18.246094 1.6875,-23.378906 q 0,-5.097656 1.6171875,-9.457031 1.6523437,-4.394532 4.640625,-7.558594 2.9882815,-3.199219 7.1718755,-4.992188 4.183593,-1.828125 9.281249,-1.828125 5.097657,0 9.28125,1.828125 4.183594,1.792969 7.136719,4.992188 2.988281,3.199219 4.605469,7.558594 1.617187,4.359375 1.617187,9.457031 z m -9.421875,0 q 0,-3.726563 -0.914062,-6.679688 -0.914063,-2.953125 -2.636719,-5.027343 -1.6875,-2.074219 -4.148437,-3.164063 -2.425782,-1.125 -5.519532,-1.125 -3.09375,0 -5.554687,1.125 -2.460938,1.089844 -4.183594,3.164063 -1.6875,2.074218 -2.601562,5.027343 -0.914063,2.953125 -0.914063,6.679688 0,3.761719 0.914063,6.75 0.914062,2.953125 2.601562,5.027343 1.722656,2.039063 4.183594,3.1289067 2.460937,1.0898438 5.554687,1.0898438 3.09375,0 5.519532,-1.0898438 2.460937,-1.0898437 4.148437,-3.1289067 1.722656,-2.074218 2.636719,-5.027343 0.914062,-2.988281 0.914062,-6.75 z"
             id="path438" />
        </g>
      </g>
    </g>
  </g>
</svg>
