<svg xmlns="http://www.w3.org/2000/svg" width="962.5px" height="875.0px" viewBox="-1.5499999999999998 0.0 27.5 25.0">
  <g transform="matrix(1 0 0 -1 0 25.0)">
    <path d="M24.0 12.0 L23.0 12.0 L22.0 12.0" class="schemWire" />
    <path d="M23.0 12.0 L23.0 9.0 L4.0 9.0 L4.0 4.0 L5.0 4.0" class="schemWire" />
    <path d="M1.0 10.0 L3.0 10.0 L3.0 5.0 L5.0 5.0" class="schemWire" />
    <path d="M1.0 16.0 L2.0 16.0 L2.0 6.0 L5.0 6.0" class="schemWire" />
    <path d="M9.0 4.0 L17.0 4.0 L17.0 12.0 L18.0 12.0" class="schemWire" />
    <circle cx="23.0" cy="12.0" r="0.1625" class="connPoint" />
    <path d="M0 0 L0 0.5" transform="matrix(0 -1 1 0 1.0 24.0)" class="tapPoint" />
    <text transform="matrix(0.045 0 0 -0.045 1.65 24.0)" dominant-baseline="middle" text-anchor="start" class="tapPointLabel">vdd</text>
    <path d="M0 0 L0 0.5" transform="matrix(0 -1 1 0 1.0 1.0)" class="tapPoint" />
    <text transform="matrix(0.045 0 0 -0.045 1.65 1.0)" dominant-baseline="middle" text-anchor="start" class="tapPointLabel">vss</text>
    <path d="M0 0 L0 0.5" transform="matrix(1 0 0 1 7.0 8.0)" class="tapPoint" />
    <text transform="matrix(0 0.045 0.045 0 7.0 8.65)" dominant-baseline="middle" text-anchor="start" class="tapPointLabel">vdd</text>
    <path d="M0 0 L0 0.5" transform="matrix(-1 0 0 -1 7.0 2.0)" class="tapPoint" />
    <text transform="matrix(0 0.045 0.045 0 7.0 1.35)" dominant-baseline="middle" text-anchor="end" class="tapPointLabel">vss</text>
    <path d="M0 0 L0 0.5" transform="matrix(1 0 0 1 20.0 14.0)" class="tapPoint" />
    <text transform="matrix(0 0.045 0.045 0 20.0 14.65)" dominant-baseline="middle" text-anchor="start" class="tapPointLabel">vdd</text>
    <path d="M0 0 L0 0.5" transform="matrix(-1 0 0 -1 20.0 10.0)" class="tapPoint" />
    <text transform="matrix(0 0.045 0.045 0 20.0 9.35)" dominant-baseline="middle" text-anchor="end" class="tapPointLabel">vss</text>
    <g>
      <rect x="5.0" y="2.0" width="4.0" height="6.0" class="symbolOutline" />
      <text transform="matrix(0.045 0 0 -0.045 8.875 7.875)" dominant-baseline="hanging" text-anchor="end" class="cellName">Mux2</text>
      <text transform="matrix(0.045 0 0 -0.045 8.875 2.125)" dominant-baseline="ideographic" text-anchor="end" class="params" />
      <text transform="matrix(0.045 0 0 -0.045 5.125 7.875)" dominant-baseline="hanging" text-anchor="start" class="instanceName">m1</text>
      <path d="M0 0 L0.2 0 L0.2 -0.2 L0 -0.4 L-0.2 -0.2 L-0.2 0 Z" transform="matrix(0 1 -1 0 8.8 4.0)" class="pinArrow" />
      <text transform="matrix(0.045 0 0 -0.045 8.875 4.125)" dominant-baseline="ideographic" text-anchor="end" class="pinLabel">y</text>
      <path d="M0 0 L0.2 -0.2 L0.2 -0.4 L0 -0.4 L-0.2 -0.4 L-0.2 -0.2 Z" transform="matrix(0 -1 1 0 5.2 4.0)" class="pinArrow" />
      <text transform="matrix(0.045 0 0 -0.045 5.125 4.125)" dominant-baseline="ideographic" text-anchor="start" class="pinLabel">a</text>
      <path d="M0 0 L0.2 -0.2 L0.2 -0.4 L0 -0.4 L-0.2 -0.4 L-0.2 -0.2 Z" transform="matrix(0 -1 1 0 5.2 5.0)" class="pinArrow" />
      <text transform="matrix(0.045 0 0 -0.045 5.125 5.125)" dominant-baseline="ideographic" text-anchor="start" class="pinLabel">b</text>
      <path d="M0 0 L0.2 -0.2 L0.2 -0.2 L0 -0.4 L-0.2 -0.2 L-0.2 -0.2 Z" transform="matrix(-1 0 0 -1 7.0 7.8)" class="pinArrow" />
      <text transform="matrix(0 0.045 0.045 0 6.875 7.875)" dominant-baseline="ideographic" text-anchor="end" class="pinLabel">vdd</text>
      <path d="M0 0 L0.2 -0.2 L0.2 -0.2 L0 -0.4 L-0.2 -0.2 L-0.2 -0.2 Z" transform="matrix(1 0 0 1 7.0 2.2)" class="pinArrow" />
      <text transform="matrix(0 0.045 0.045 0 6.875 2.125)" dominant-baseline="ideographic" text-anchor="start" class="pinLabel">vss</text>
      <path d="M0 0 L0.2 -0.2 L0.2 -0.4 L0 -0.4 L-0.2 -0.4 L-0.2 -0.2 Z" transform="matrix(0 -1 1 0 5.2 6.0)" class="pinArrow" />
      <text transform="matrix(0.045 0 0 -0.045 5.125 6.125)" dominant-baseline="ideographic" text-anchor="start" class="pinLabel">s</text>
    </g>
    <g>
      <rect x="18.0" y="10.0" width="4.0" height="4.0" class="symbolOutline" />
      <text transform="matrix(0.045 0 0 -0.045 21.875 13.875)" dominant-baseline="hanging" text-anchor="end" class="cellName">Inv</text>
      <text transform="matrix(0.045 0 0 -0.045 21.875 10.125)" dominant-baseline="ideographic" text-anchor="end" class="params" />
      <text transform="matrix(0.045 0 0 -0.045 18.125 13.875)" dominant-baseline="hanging" text-anchor="start" class="instanceName">i1</text>
      <path d="M0 0 L0.2 -0.2 L0.2 -0.2 L0 -0.4 L-0.2 -0.2 L-0.2 -0.2 Z" transform="matrix(-1 0 0 -1 20.0 13.8)" class="pinArrow" />
      <text transform="matrix(0 0.045 0.045 0 19.875 13.875)" dominant-baseline="ideographic" text-anchor="end" class="pinLabel">vdd</text>
      <path d="M0 0 L0.2 -0.2 L0.2 -0.2 L0 -0.4 L-0.2 -0.2 L-0.2 -0.2 Z" transform="matrix(1 0 0 1 20.0 10.2)" class="pinArrow" />
      <text transform="matrix(0 0.045 0.045 0 19.875 10.125)" dominant-baseline="ideographic" text-anchor="start" class="pinLabel">vss</text>
      <path d="M0 0 L0.2 -0.2 L0.2 -0.4 L0 -0.4 L-0.2 -0.4 L-0.2 -0.2 Z" transform="matrix(0 -1 1 0 18.2 12.0)" class="pinArrow" />
      <text transform="matrix(0.045 0 0 -0.045 18.125 12.125)" dominant-baseline="ideographic" text-anchor="start" class="pinLabel">a</text>
      <path d="M0 0 L0.2 0 L0.2 -0.2 L0 -0.4 L-0.2 -0.2 L-0.2 0 Z" transform="matrix(0 1 -1 0 21.8 12.0)" class="pinArrow" />
      <text transform="matrix(0.045 0 0 -0.045 21.875 12.125)" dominant-baseline="ideographic" text-anchor="end" class="pinLabel">y</text>
    </g>
    <g>
      <path d="M0 0 L0.25 -0.25 L0.25 -0.5 L0 -0.5 L-0.25 -0.5 L-0.25 -0.25 Z" transform="matrix(0 -1 1 0 1.0 10.0)" class="portArrow" />
      <text transform="matrix(0.045 0 0 -0.045 0.35 10.0)" dominant-baseline="middle" text-anchor="end" class="portLabel">D</text>
    </g>
    <g>
      <path d="M0 0 L0.25 -0.25 L0.25 -0.5 L0 -0.5 L-0.25 -0.5 L-0.25 -0.25 Z" transform="matrix(0 -1 1 0 1.0 16.0)" class="portArrow" />
      <text transform="matrix(0.045 0 0 -0.045 0.35 16.0)" dominant-baseline="middle" text-anchor="end" class="portLabel">LE</text>
    </g>
    <g>
      <path d="M0 0 L0.25 -0.25 L0.25 -0.5 L0 -0.5 L-0.25 -0.5 L-0.25 -0.25 Z" transform="matrix(0 -1 1 0 1.0 24.0)" class="portArrow" />
      <text transform="matrix(0.045 0 0 -0.045 0.35 24.0)" dominant-baseline="middle" text-anchor="end" class="portLabel">vdd</text>
    </g>
    <g>
      <path d="M0 0 L0.25 -0.25 L0.25 -0.5 L0 -0.5 L-0.25 -0.5 L-0.25 -0.25 Z" transform="matrix(0 -1 1 0 1.0 1.0)" class="portArrow" />
      <text transform="matrix(0.045 0 0 -0.045 0.35 1.0)" dominant-baseline="middle" text-anchor="end" class="portLabel">vss</text>
    </g>
    <g>
      <path d="M0 0 L0.25 0 L0.25 -0.25 L0 -0.5 L-0.25 -0.25 L-0.25 0 Z" transform="matrix(0 1 -1 0 24.0 12.0)" class="portArrow" />
      <text transform="matrix(0.045 0 0 -0.045 24.65 12.0)" dominant-baseline="middle" text-anchor="start" class="portLabel">Q</text>
    </g>
  </g>
</svg>