<?xml version="1.0" encoding="UTF-8" standalone="no"?>
<svg
   width="65.775978mm"
   height="25.626549mm"
   viewBox="0 0 65.775978 25.626549"
   version="1.1"
   id="svg488"
   xmlns="http://www.w3.org/2000/svg"
   xmlns:svg="http://www.w3.org/2000/svg">
  <g
     id="layer1"
     transform="translate(-0.59531235,-2.5523642)" style="fill:#c00000;">
    <path
       d="m 16.594335,10.961152 q 0,1.810745 -0.570509,3.361037 -0.570505,1.537889 -1.624704,2.666503 -1.041799,1.128613 -2.517676,1.761133 -1.475881,0.63252 -3.2742189,0.63252 -1.7983411,0 -3.2742187,-0.63252 Q 3.8571274,18.117305 2.8029286,16.988692 1.7487299,15.860078 1.165821,14.322189 0.59531235,12.771897 0.59531235,10.961152 q 0,-1.7983378 0.57050865,-3.3362302 Q 1.7487299,6.0746293 2.8029286,4.9584193 3.8571274,3.8298056 5.3330084,3.1972856 6.808886,2.5523655 8.6072271,2.5523655 q 1.7983379,0 3.2742189,0.6449201 1.475877,0.63252 2.517676,1.7611337 1.054199,1.1286137 1.624704,2.6665025 0.570509,1.5378924 0.570509,3.3362302 z m -3.323827,0 q 0,-1.3146478 -0.322463,-2.3564429 -0.32246,-1.0417986 -0.930173,-1.7735373 -0.595312,-0.7317387 -1.463477,-1.11621 -0.8557617,-0.396875 -1.9471679,-0.396875 -1.0914062,0 -1.9595711,0.396875 -0.868165,0.3844713 -1.4758776,1.11621 -0.5953125,0.7317387 -0.917776,1.7735373 -0.3224601,1.0417951 -0.3224601,2.3564429 0,1.327051 0.3224601,2.38125 0.3224635,1.041798 0.917776,1.773537 0.6077126,0.719335 1.4758776,1.103806 0.8681649,0.384475 1.9595711,0.384475 1.0914062,0 1.9471679,-0.384475 0.868165,-0.384471 1.463477,-1.103806 0.607713,-0.731739 0.930173,-1.773537 0.322463,-1.054199 0.322463,-2.38125 z"
       id="path240" />
    <path
       d="m 21.908096,12.871115 v 6.337596 H 18.633877 V 2.7383993 h 4.960937 q 1.649512,0 2.827733,0.3596676 1.178225,0.3472673 1.922364,0.9797838 0.756542,0.6325199 1.103809,1.5130885 0.347264,0.8805651 0.347264,1.9347638 0,0.8061537 -0.223241,1.5378924 -0.223241,0.719335 -0.657324,1.3270516 -0.421679,0.595312 -1.041798,1.066598 -0.620117,0.458887 -1.426267,0.744143 0.310057,0.173634 0.582909,0.421679 0.272852,0.235645 0.508497,0.582908 l 3.683494,6.002736 h -2.939355 q -0.781346,0 -1.203028,-0.657323 L 24.078504,13.416817 Q 23.892471,13.11916 23.656826,12.995138 23.433584,12.871115 23.011902,12.871115 Z m 0,-2.319238 h 1.661914 q 0.79375,0 1.364256,-0.210842 0.582912,-0.210841 0.95498,-0.5829084 0.372071,-0.3720711 0.545705,-0.8805686 0.186033,-0.5208975 0.186033,-1.1286137 0,-1.2030251 -0.744139,-1.8479487 -0.744142,-0.6573238 -2.282031,-0.6573238 h -1.686718 z"
       id="path242" />
    <path
       d="m 46.873716,10.961152 q 0,1.810745 -0.570508,3.33623 -0.570509,1.513088 -1.624708,2.604494 -1.041795,1.091407 -2.517676,1.699119 -1.475878,0.607716 -3.274219,0.607716 H 32.883873 V 2.7383993 h 6.002732 q 1.798341,0 3.274219,0.6077162 1.475881,0.6077126 2.517676,1.6991189 1.054199,1.0914062 1.624708,2.6044912 0.570508,1.5130886 0.570508,3.3114264 z m -3.311426,0 q 0,-1.3146478 -0.32246,-2.3564429 Q 42.917366,7.5629105 42.309654,6.8311718 41.714341,6.0994331 40.846176,5.7149618 39.978011,5.3180868 38.886605,5.3180868 H 36.158091 V 16.61662 h 2.728514 q 1.091406,0 1.959571,-0.384471 0.868165,-0.384471 1.463478,-1.11621 0.607712,-0.731739 0.930176,-1.773537 0.32246,-1.054199 0.32246,-2.38125 z"
       id="path244" />
    <path
       d="m 64.622562,15.215158 q 0.260449,0 0.446483,0.198437 l 1.302247,1.401463 q -0.892969,1.252636 -2.244824,1.909963 -1.339455,0.657324 -3.187403,0.657324 -1.674315,0 -3.01377,-0.62012 -1.339452,-0.632516 -2.282031,-1.74873 -0.930177,-1.128613 -1.43867,-2.666502 Q 53.7085,12.7967 53.7085,10.961152 q 0,-1.847949 0.533301,-3.3858378 0.545701,-1.5502925 1.525489,-2.6665061 0.979783,-1.11621 2.344042,-1.7363263 1.364255,-0.6201163 3.001366,-0.6201163 1.661915,0 2.939355,0.5953125 1.27744,0.5829088 2.133205,1.5502925 L 65.093852,6.2234592 Q 64.98223,6.3598819 64.8334,6.4715043 q -0.136423,0.1116224 -0.396875,0.1116224 -0.260449,0 -0.508494,-0.1984375 Q 63.692386,6.1862517 63.332718,5.9506067 62.985451,5.7149618 62.45215,5.5165243 61.918852,5.3180868 61.087895,5.3180868 q -0.905373,0 -1.649512,0.3844713 -0.744142,0.3720712 -1.277443,1.1038099 -0.533301,0.719335 -0.830958,1.7735338 -0.285252,1.0417986 -0.285252,2.3812502 0,1.351855 0.32246,2.406057 0.32246,1.054199 0.868165,1.785937 0.558105,0.719336 1.302247,1.103807 0.744139,0.372071 1.5999,0.372071 0.508498,0 0.917773,-0.04961 0.409278,-0.06201 0.756546,-0.198438 0.359667,-0.148826 0.669724,-0.372067 0.31006,-0.223245 0.620119,-0.558105 0.124023,-0.09922 0.248046,-0.161234 0.136426,-0.07441 0.272852,-0.07441 z"
       id="path246" />
    <path
       d="m 54.395023,18.641512 q 0,0.818554 -0.372068,1.500681 -0.359667,0.669728 -1.289843,1.215433 -0.930177,0.533297 -2.54248,0.917772 -1.599904,0.384471 -4.067969,0.607713 0,1.463477 0.682127,2.170412 0.694532,0.694531 2.108398,0.694531 0.892969,0 1.463477,-0.198437 0.582909,-0.198438 0.992188,-0.434083 0.409279,-0.248048 0.719335,-0.446486 0.32246,-0.198437 0.706935,-0.198437 0.334864,0 0.570509,0.272852 l 0.818553,0.967384 q -0.694531,0.64492 -1.351855,1.11621 -0.657323,0.458886 -1.364258,0.768946 -0.694532,0.297656 -1.475878,0.434082 -0.768946,0.148827 -1.674318,0.148827 -1.190625,0 -2.170409,-0.372068 -0.967384,-0.372071 -1.661915,-1.054202 -0.682128,-0.694531 -1.066603,-1.649511 -0.372067,-0.967381 -0.372067,-2.158006 0,-1.451077 0.496093,-2.790528 0.508494,-1.351855 1.426267,-2.38125 0.930176,-1.029395 2.232423,-1.649511 1.314648,-0.620117 2.939355,-0.620117 1.066603,0 1.860353,0.285253 0.80615,0.272852 1.327051,0.731739 0.533301,0.446482 0.79375,1.004587 0.272849,0.558109 0.272849,1.116214 z m -4.402829,-0.95498 q -0.669727,0 -1.25264,0.235641 -0.570505,0.223245 -1.029391,0.644924 -0.45889,0.409279 -0.79375,1.004591 -0.334864,0.582909 -0.533301,1.289844 1.661911,-0.198438 2.678906,-0.421683 1.016991,-0.235645 1.575096,-0.496093 0.558105,-0.272849 0.744143,-0.570505 0.186033,-0.31006 0.186033,-0.657328 0,-0.186034 -0.08682,-0.359667 -0.08682,-0.186034 -0.285256,-0.334864 -0.186034,-0.148826 -0.48369,-0.235641 -0.297656,-0.09922 -0.719335,-0.09922 z"
       id="path249" />
  </g>
</svg>
